<svg width="202" height="66" viewBox="0 0 202 66" fill="none" xmlns="http://www.w3.org/2000/svg">
<rect y="0.761963" width="201.87" height="65.2381" rx="17.5" fill="#080809"/>
<g clip-path="url(#clip0_2_31)">
<path d="M53.7831 32.4522L34.8346 50.4788C33.9472 49.8797 33.4204 48.8832 33.4297 47.8214V17.083C33.4204 16.0212 33.9472 15.0247 34.8346 14.4255L53.7831 32.4522Z" fill="#2196F3"/>
<path d="M60.4133 26.1557L53.783 32.4523L34.8346 14.4257C34.906 14.371 34.9803 14.3201 35.0573 14.2733C36.0587 13.6737 37.3096 13.6543 38.3296 14.2225L60.4133 26.1557Z" fill="#4CAF50"/>
<path d="M68.4485 32.4524C68.4608 33.651 67.8016 34.7582 66.7352 35.3299L60.4134 38.749L53.7831 32.4524L60.4134 26.1558L66.7352 29.5749C67.8016 30.1466 68.4608 31.2538 68.4485 32.4524Z" fill="#F0BB1F"/>
<path d="M60.4133 38.749L38.3296 50.6822C37.3073 51.2416 36.0612 51.2222 35.0573 50.6314C34.9803 50.5846 34.906 50.5337 34.8346 50.479L53.7831 32.4524L60.4133 38.749Z" fill="#F15A2B"/>
</g>
<path d="M90.6038 22.9058H85.3061V24.9934H88.1285C87.7512 25.9925 86.8305 26.6039 85.4268 26.6039C83.3742 26.6039 82.1064 25.3066 82.1064 23.5321C82.1064 21.698 83.4346 20.4007 85.2155 20.4007C86.4079 20.4007 87.3588 20.9375 87.7965 21.6234L89.8491 20.4603C88.9586 19.0586 87.2531 18.0745 85.2306 18.0745C82.1215 18.0745 79.6915 20.4901 79.6915 23.5172C79.6915 26.5144 82.0762 28.9301 85.3967 28.9301C88.3549 28.9301 90.6038 26.9916 90.6038 23.8005V22.9058Z" fill="white"/>
<path d="M93.6254 26.4249V24.5759H97.3987V22.3093H93.6254V20.5796H97.776V18.2832H91.2106V28.7213H97.8515V26.4249H93.6254Z" fill="white"/>
<path d="M105.553 18.2832H97.7047V20.5796H100.421V28.7213H102.836V20.5796H105.553V18.2832Z" fill="white"/>
<path d="M108.874 18.2832V28.7213H111.289V18.2832H108.874Z" fill="white"/>
<path d="M119.443 18.2832H111.595V20.5796H114.312V28.7213H116.727V20.5796H119.443V18.2832Z" fill="white"/>
<path d="M127.806 28.9301C130.839 28.9301 133.3 26.5741 133.3 23.5023C133.3 20.4305 130.839 18.0745 127.806 18.0745C124.772 18.0745 122.312 20.4305 122.312 23.5023C122.312 26.5741 124.772 28.9301 127.806 28.9301ZM127.806 26.6039C126.085 26.6039 124.727 25.3662 124.727 23.5023C124.727 21.6383 126.085 20.4007 127.806 20.4007C129.526 20.4007 130.885 21.6383 130.885 23.5023C130.885 25.3662 129.526 26.6039 127.806 26.6039Z" fill="white"/>
<path d="M139.791 18.2832V23.9496L135.716 18.2832H133.905V28.7213H136.319V23.0549L140.395 28.7213H142.206V18.2832H139.791Z" fill="white"/>
<path d="M90.6038 40.6357V41.0383C90.6038 42.3405 90.1359 43.439 89.2001 44.3337C88.2643 45.2185 87.0317 45.6609 85.5023 45.6609C83.8924 45.6609 82.5642 45.1439 81.5177 44.1101C80.4713 43.0662 79.948 41.7888 79.948 40.2778C79.948 38.7667 80.4662 37.4943 81.5026 36.4604C82.539 35.4166 83.8521 34.8947 85.4419 34.8947C86.4079 34.8947 87.2934 35.1234 88.0983 35.5806C88.9133 36.0379 89.5422 36.6493 89.985 37.4148L89.2756 37.8323C88.9234 37.1762 88.4002 36.6493 87.7059 36.2517C87.0217 35.854 86.267 35.6552 85.4419 35.6552C84.0735 35.6552 82.9465 36.1025 82.0611 36.9972C81.1857 37.882 80.748 38.9755 80.748 40.2778C80.748 41.5801 81.1907 42.6785 82.0762 43.5732C82.9616 44.458 84.1037 44.9004 85.5023 44.9004C86.7399 44.9004 87.7411 44.5673 88.5058 43.9013C89.2705 43.2352 89.6982 42.3952 89.7887 41.3812H85.3061V40.6357H90.6038Z" fill="white"/>
<path d="M101.317 44.0951C100.261 45.139 98.9728 45.6609 97.4534 45.6609C95.9341 45.6609 94.6461 45.139 93.5896 44.0951C92.5331 43.0414 92.0048 41.7689 92.0048 40.2778C92.0048 38.7866 92.5331 37.5191 93.5896 36.4753C94.6461 35.4216 95.9341 34.8947 97.4534 34.8947C98.9728 34.8947 100.261 35.4216 101.317 36.4753C102.374 37.5191 102.902 38.7866 102.902 40.2778C102.902 41.7689 102.374 43.0414 101.317 44.0951ZM94.148 43.5583C95.0536 44.453 96.1554 44.9004 97.4534 44.9004C98.7514 44.9004 99.8482 44.453 100.744 43.5583C101.649 42.6537 102.102 41.5602 102.102 40.2778C102.102 38.9954 101.649 37.9068 100.744 37.0121C99.8482 36.1075 98.7514 35.6552 97.4534 35.6552C96.1554 35.6552 95.0536 36.1075 94.148 37.0121C93.2525 37.9068 92.8048 38.9954 92.8048 40.2778C92.8048 41.5602 93.2525 42.6537 94.148 43.5583Z" fill="white"/>
<path d="M113.639 44.0951C112.583 45.139 111.295 45.6609 109.776 45.6609C108.256 45.6609 106.968 45.139 105.912 44.0951C104.855 43.0414 104.327 41.7689 104.327 40.2778C104.327 38.7866 104.855 37.5191 105.912 36.4753C106.968 35.4216 108.256 34.8947 109.776 34.8947C111.295 34.8947 112.583 35.4216 113.639 36.4753C114.696 37.5191 115.224 38.7866 115.224 40.2778C115.224 41.7689 114.696 43.0414 113.639 44.0951ZM106.47 43.5583C107.376 44.453 108.478 44.9004 109.776 44.9004C111.074 44.9004 112.17 44.453 113.066 43.5583C113.971 42.6537 114.424 41.5602 114.424 40.2778C114.424 38.9954 113.971 37.9068 113.066 37.0121C112.17 36.1075 111.074 35.6552 109.776 35.6552C108.478 35.6552 107.376 36.1075 106.47 37.0121C105.575 37.9068 105.127 38.9954 105.127 40.2778C105.127 41.5602 105.575 42.6537 106.47 43.5583Z" fill="white"/>
<path d="M127.305 40.6357V41.0383C127.305 42.3405 126.837 43.439 125.901 44.3337C124.965 45.2185 123.733 45.6609 122.203 45.6609C120.593 45.6609 119.265 45.1439 118.219 44.1101C117.172 43.0662 116.649 41.7888 116.649 40.2778C116.649 38.7667 117.167 37.4943 118.204 36.4604C119.24 35.4166 120.553 34.8947 122.143 34.8947C123.109 34.8947 123.994 35.1234 124.799 35.5806C125.614 36.0379 126.243 36.6493 126.686 37.4148L125.977 37.8323C125.624 37.1762 125.101 36.6493 124.407 36.2517C123.723 35.854 122.968 35.6552 122.143 35.6552C120.774 35.6552 119.648 36.1025 118.762 36.9972C117.887 37.882 117.449 38.9755 117.449 40.2778C117.449 41.5801 117.892 42.6785 118.777 43.5732C119.663 44.458 120.805 44.9004 122.203 44.9004C123.441 44.9004 124.442 44.5673 125.207 43.9013C125.972 43.2352 126.399 42.3952 126.49 41.3812H122.007V40.6357H127.305Z" fill="white"/>
<path d="M130.109 44.7513H135.09V45.4968H129.31V35.0587H130.109V44.7513Z" fill="white"/>
<path d="M137.553 44.7513H142.835V45.4968H136.753V35.0587H142.76V35.8043H137.553V39.8603H142.383V40.6058H137.553V44.7513Z" fill="white"/>
<path d="M152.417 35.0587C153.362 35.0587 154.147 35.3669 154.771 35.9833C155.395 36.5996 155.707 37.37 155.707 38.2945C155.707 39.2191 155.395 39.9895 154.771 40.6058C154.147 41.2122 153.362 41.5154 152.417 41.5154H149.624V45.4968H148.824V35.0587H152.417ZM152.417 40.7699C153.141 40.7699 153.735 40.5363 154.198 40.069C154.67 39.6018 154.907 39.0103 154.907 38.2945C154.907 37.5688 154.67 36.9724 154.198 36.5052C153.735 36.0379 153.141 35.8043 152.417 35.8043H149.624V40.7699H152.417Z" fill="white"/>
<path d="M158.483 44.7513H163.463V45.4968H157.683V35.0587H158.483V44.7513Z" fill="white"/>
<path d="M172.53 45.4968L171.503 42.8426H166.206L165.179 45.4968H164.334L168.44 35.0587H169.285L173.375 45.4968H172.53ZM166.508 42.097H171.217L168.862 36.028L166.508 42.097Z" fill="white"/>
<path d="M180.892 35.0587L177.044 41.2023V45.4968H176.244V41.2023L172.395 35.0587H173.3L176.651 40.4418L179.987 35.0587H180.892Z" fill="white"/>
<defs>
<clipPath id="clip0_2_31">
<rect width="37.7327" height="37.2789" fill="white" transform="translate(32.0728 13.8096)"/>
</clipPath>
</defs>
</svg>
